<?xml version="1.0" encoding="utf-8"?>
<!-- Uploaded to: SVG Repo, www.svgrepo.com, Generator: SVG Repo Mixer Tools -->
<!DOCTYPE svg PUBLIC "-//W3C//DTD SVG 1.1//EN" "http://www.w3.org/Graphics/SVG/1.1/DTD/svg11.dtd">
<svg fill="#ECEFF5" width="800px" height="800px" viewBox="0 0 1000 1000" version="1.1" xmlns="http://www.w3.org/2000/svg" xmlns:xlink="http://www.w3.org/1999/xlink"  enable-background="new 0 0 1000 1000" xml:space="preserve">

<g>

<g transform="translate(0.000000,512.000000) scale(0.100000,-0.100000)">

<path d="M4890.9,4975.7l-53.6-46l-5.7-605l-5.7-605h-178.1c-153.2,0-185.7-5.7-229.8-40.2c-30.6-23-111.1-158.9-195.3-325.5l-141.7-285.3h-191.5H3698v84.2c0,118.7-26.8,176.2-95.7,212.5c-47.9,24.9-72.8,26.8-118.7,11.5c-116.8-40.2-109.1,61.3-111-1788.3V-111.7l47.9-46c38.3-40.2,65.1-47.9,162.7-47.9H3698v-2125.3v-2125.3H1951.8c-1849.6-1.9-1782.6,1.9-1830.4-90c-36.4-67-26.8-120.6,32.5-180l55.5-55.5H5000h4790.6l55.5,55.5c59.4,59.3,68.9,112.9,32.6,180c-47.9,91.9,19.1,88.1-1828.5,90H6302v1989.4c0,1981.7,0,1987.4-40.2,2039.2c-40.2,49.8-124.5,67-199.1,38.3c-88.1-34.5-86.2,3.8-86.2-2094.7v-1972.1h-239.3h-237.4l-5.8,764l-5.7,763.9l-45.9,49.8c-61.3,65.1-168.5,68.9-227.9,5.7c-40.2-44-42.1-55.5-46-809.9l-5.7-764H5000h-162.7l-5.7,764c-3.8,754.4-5.7,765.9-46,809.9c-59.4,63.2-166.6,59.3-227.8-5.7l-46-49.8l-5.7-763.9l-5.8-764h-237.4h-239.3v976.5v976.5h813.7c899.9,0,921,1.9,965,113c53.6,126.4-49.8,231.7-225.9,231.7h-76.6l-5.8,767.8l-5.7,767.8l-53.6,45.9c-70.8,59.4-155.1,59.4-214.4-1.9l-47.9-46v-767.8v-765.9H5000h-172.3v764c0,853.9,3.8,834.8-135.9,855.8c-55.5,9.6-78.5,1.9-124.5-36.4l-55.5-47.9l-5.7-767.8l-5.8-767.8h-237.4h-239.3v976.5v976.5h1254.1h1256l46,47.9l47.9,46v1704.1v1702.2l-61.3,51.7c-68.9,59.4-151.3,55.5-216.4-11.5c-38.3-36.4-38.3-65.1-44-1625.6L6302,120H5000H3698v1311.6v1311.6h1169.9c710.3,0,1181.3,7.7,1202.4,19.2c19.2,9.6,45.9,44,59.3,76.6c44,107.2-47.9,227.8-176.2,229.8c-38.3,1.9-65.1,44-187.6,289.1c-78.5,158.9-164.7,306.4-189.5,325.5c-36.4,30.6-78.5,36.4-224,36.4h-178.1l-5.8,605l-5.7,605l-53.6,46c-30.6,24.9-78.5,46-109.1,46S4921.5,5000.5,4890.9,4975.7z M5459.5,3240.9c42.1-84.2,76.6-157,76.6-162.7c0-5.7-241.2-9.6-536.1-9.6c-294.9,0-536.1,3.8-536.1,9.6c0,5.7,34.5,78.5,76.6,162.7l76.6,153.2H5000h382.9L5459.5,3240.9z"/>

<path d="M4693.6,2354.4c-695-237.4-898-1100.9-379.1-1619.8c612.7-610.8,1663.8-170.4,1661.9,696.9c0,425.1-281.5,804.2-685.5,928.6C5116.8,2413.8,4860.2,2411.9,4693.6,2354.4z M5243.2,2030.9c132.1-47.9,281.5-189.6,350.4-331.2c38.3-80.4,47.9-124.5,47.9-268.1c0-151.3-7.6-185.7-53.6-281.5c-76.6-157-229.8-291-390.6-340.8c-68.9-21.1-157-38.3-197.2-38.3c-40.2,0-128.3,17.2-197.2,38.3c-160.8,49.8-314,183.8-390.6,340.8c-46,95.7-53.6,130.2-53.6,281.5c0,208.7,44,312.1,191.5,461.4C4724.3,2069.2,4998.1,2122.8,5243.2,2030.9z"/>

<path d="M4894.7,1873.9c-57.4-57.4-72.8-139.8-65.1-346.6l7.7-164.7l135.9-132.1c158.9-155.1,206.8-166.6,296.8-78.5c80.4,82.3,74.7,153.2-21.1,258.5c-72.8,78.5-76.6,88.1-76.6,210.6c0,143.6-34.5,247-91.9,277.6C5017.2,1933.2,4944.5,1923.6,4894.7,1873.9z"/>

</g>

</g>
</svg>