<?xml version="1.0" encoding="iso-8859-1"?>
<!-- Uploaded to: SVG Repo, www.svgrepo.com, Generator: SVG Repo Mixer Tools -->
<svg fill="#ECEFF5" height="800px" width="800px" version="1.1" id="Layer_1" xmlns="http://www.w3.org/2000/svg" xmlns:xlink="http://www.w3.org/1999/xlink" 
	 viewBox="0 0 512 512" xml:space="preserve">
<g>
	<g>
		<g>
			<path d="M256,170.667c2.773,0,5.547-1.067,7.659-3.221c1.941-2.133,3.008-4.693,3.008-7.467c0-2.773-1.045-5.333-3.2-7.68
				c-4.032-3.819-10.667-4.032-15.147,0.213c-1.92,2.155-2.987,4.715-2.987,7.488s1.067,5.333,2.987,7.467
				C250.453,169.6,253.227,170.667,256,170.667z"/>
			<path d="M245.333,256h21.333c5.888,0,10.667-4.779,10.667-10.667s-4.779-10.667-10.667-10.667h-21.333
				c-5.888,0-10.667,4.779-10.667,10.667S239.445,256,245.333,256z"/>
			<path d="M224,341.333h64c5.888,0,10.667-4.779,10.667-10.667S293.888,320,288,320h-64c-5.888,0-10.667,4.779-10.667,10.667
				S218.112,341.333,224,341.333z"/>
			<path d="M298.667,426.667h-85.333c-5.888,0-10.667,4.779-10.667,10.667c0,5.888,4.779,10.667,10.667,10.667h85.333
				c5.888,0,10.667-4.779,10.667-10.667C309.333,431.445,304.555,426.667,298.667,426.667z"/>
			<path d="M490.667,490.667H480v-53.333c0-5.888-4.779-10.667-10.667-10.667c-5.888,0-10.667,4.779-10.667,10.667v53.333h-21.333
				v-32c0-5.888-4.779-10.667-10.667-10.667S416,452.779,416,458.667v32h-42.667V416c0-13.888-8.939-25.621-21.333-30.037v-76.629
				c0-13.888-8.939-25.621-21.333-30.037V224c0-13.888-8.939-25.621-21.333-30.037v-55.296c0-14.827-10.197-27.243-23.936-30.848
				l-18.731-56.213V10.667C266.667,4.779,261.888,0,256,0c-5.888,0-10.667,4.779-10.667,10.667v40.96l-18.731,56.192
				c-13.739,3.605-23.936,16-23.936,30.848v33.963c-12.395,4.416-21.333,16.149-21.333,30.037v55.296
				C168.939,262.379,160,274.112,160,288v76.629c-12.395,4.416-21.333,16.149-21.333,30.037v96H96v-32
				C96,452.779,91.221,448,85.333,448s-10.667,4.779-10.667,10.667v32H53.333v-53.333c0-5.888-4.779-10.667-10.667-10.667
				S32,431.445,32,437.333v53.333H21.333c-5.888,0-10.667,4.779-10.667,10.667c0,5.888,4.779,10.667,10.667,10.667h469.333
				c5.888,0,10.667-4.779,10.667-10.667C501.333,495.445,496.555,490.667,490.667,490.667z M256,87.104l6.528,19.563h-13.035
				L256,87.104z M352,490.667H160v-96C160,388.8,164.8,384,170.667,384H192c5.888,0,10.667-4.779,10.667-10.667
				c0-5.888-4.779-10.667-10.667-10.667h-10.667V288c0-5.867,4.8-10.667,10.667-10.667h21.333c5.888,0,10.667-4.779,10.667-10.667
				S219.221,256,213.333,256h-10.667v-53.333c0-5.867,4.8-10.667,10.667-10.667h21.333c5.888,0,10.667-4.779,10.667-10.667
				s-4.779-10.667-10.667-10.667H224v-32C224,132.8,228.8,128,234.667,128h42.667C283.2,128,288,132.8,288,138.667V192h-10.667
				c-5.888,0-10.667,4.779-10.667,10.667s4.779,10.667,10.667,10.667h21.333c5.867,0,10.667,4.8,10.667,10.667v53.333h-10.667
				c-5.888,0-10.667,4.779-10.667,10.667s4.779,10.667,10.667,10.667H320c5.867,0,10.667,4.8,10.667,10.667V384H320
				c-5.888,0-10.667,4.779-10.667,10.667s4.779,10.667,10.667,10.667h21.333c5.867,0,10.667,4.8,10.667,10.667V490.667z"/>
		</g>
	</g>
</g>
</svg>