<?xml version="1.0" encoding="utf-8"?>

<!-- Uploaded to: SVG Repo, www.svgrepo.com, Generator: SVG Repo Mixer Tools -->
<svg width="800px" height="800px" viewBox="0 0 64 64" xmlns="http://www.w3.org/2000/svg">

<title>china</title>

<g id="china">

<path d="M40,54.7V51.5a8.5,8.5,0,0,0-17,0v3.078" style="fill:none;stroke:#ECEFF5;stroke-linecap:round;stroke-linejoin:round;stroke-width:2px"/>

<path d="M26,54.7V52.5a5.5,5.5,0,0,1,11,0v1.957" style="fill:none;stroke:#ECEFF5;stroke-linecap:round;stroke-linejoin:round;stroke-width:2px"/>

<line x1="17" y1="33.699" x2="17" y2="25.237" style="fill:none;stroke:#ECEFF5;stroke-linecap:round;stroke-linejoin:round;stroke-width:2px"/>

<line x1="20" y1="25.663" x2="20" y2="33.699" style="fill:none;stroke:#ECEFF5;stroke-linecap:round;stroke-linejoin:round;stroke-width:2px"/>

<line x1="43" y1="33.699" x2="43" y2="26" style="fill:none;stroke:#ECEFF5;stroke-linecap:round;stroke-linejoin:round;stroke-width:2px"/>

<line x1="46" y1="24.933" x2="46" y2="33.699" style="fill:none;stroke:#ECEFF5;stroke-linecap:round;stroke-linejoin:round;stroke-width:2px"/>

<rect x="34" y="55" width="20" height="4" style="fill:none;stroke:#ECEFF5;stroke-linecap:round;stroke-linejoin:round;stroke-width:2px"/>

<rect x="9" y="55" width="20" height="4" style="fill:none;stroke:#ECEFF5;stroke-linecap:round;stroke-linejoin:round;stroke-width:2px"/>

<line x1="6" y1="59" x2="57" y2="59" style="fill:none;stroke:#ECEFF5;stroke-linecap:round;stroke-linejoin:round;stroke-width:2px"/>

<polyline points="51 42.221 51 55 48 55 48 43" style="fill:none;stroke:#ECEFF5;stroke-linecap:round;stroke-linejoin:round;stroke-width:2px"/>

<polyline points="15 43 15 55 12 55 12 42.221" style="fill:none;stroke:#ECEFF5;stroke-linecap:round;stroke-linejoin:round;stroke-width:2px"/>

<polyline points="43 40 43 55 40 55 40 40" style="fill:none;stroke:#ECEFF5;stroke-linecap:round;stroke-linejoin:round;stroke-width:2px"/>

<polyline points="23 40 23 55 20 55 20 39.664" style="fill:none;stroke:#ECEFF5;stroke-linecap:round;stroke-linejoin:round;stroke-width:2px"/>

<polygon points="49 24 40 26 40 22 49 22 49 24" style="fill:none;stroke:#ECEFF5;stroke-linecap:round;stroke-linejoin:round;stroke-width:2px"/>

<polyline points="55 37.485 55 41 46 43 46 39.428" style="fill:none;stroke:#ECEFF5;stroke-linecap:round;stroke-linejoin:round;stroke-width:2px"/>

<polyline points="8 37 8 41 17 43 17 39" style="fill:none;stroke:#ECEFF5;stroke-linecap:round;stroke-linejoin:round;stroke-width:2px"/>

<polygon points="14 24 23 26 23 22 14 22 14 24" style="fill:none;stroke:#ECEFF5;stroke-linecap:round;stroke-linejoin:round;stroke-width:2px"/>

<polyline points="37 33.699 37 22 40 22 40 33.699" style="fill:none;stroke:#ECEFF5;stroke-linecap:round;stroke-linejoin:round;stroke-width:2px"/>

<polyline points="23 33.699 23 22 26 22 26 33.455" style="fill:none;stroke:#ECEFF5;stroke-linecap:round;stroke-linejoin:round;stroke-width:2px"/>

<path d="M20.119,21.983s-6.85.423-10.044-2.979C19.425,20.569,32,12,32,12s13.575,8.569,22.925,7c-3.194,3.4-10.044,2.979-10.044,2.979Z" style="fill:none;stroke:#ECEFF5;stroke-linecap:round;stroke-linejoin:round;stroke-width:2px"/>

<line x1="32" y1="12" x2="32" y2="9" style="fill:none;stroke:#ECEFF5;stroke-linecap:round;stroke-linejoin:round;stroke-width:2px"/>

<rect x="43" y="49" width="5" height="5" style="fill:none;stroke:#ECEFF5;stroke-linecap:round;stroke-linejoin:round;stroke-width:2px"/>

<rect x="15" y="50" width="5" height="5" style="fill:none;stroke:#ECEFF5;stroke-linecap:round;stroke-linejoin:round;stroke-width:2px"/>

<line x1="34" y1="53" x2="34" y2="58" style="fill:none;stroke:#ECEFF5;stroke-linecap:round;stroke-linejoin:round;stroke-width:2px"/>

<path d="M2.218,35.636s30.347,9.819,59.1,0L45.342,34H18.19Z" style="fill:none;stroke:#ECEFF5;stroke-linecap:round;stroke-linejoin:round;stroke-width:2px"/>

<line x1="29" y1="53" x2="29" y2="58" style="fill:none;stroke:#ECEFF5;stroke-linecap:round;stroke-linejoin:round;stroke-width:2px"/>

</g>

</svg>