<?xml version="1.0" encoding="utf-8"?>
<!-- Uploaded to: SVG Repo, www.svgrepo.com, Generator: SVG Repo Mixer Tools -->
<!DOCTYPE svg PUBLIC "-//W3C//DTD SVG 1.1//EN" "http://www.w3.org/Graphics/SVG/1.1/DTD/svg11.dtd">
<svg fill="#ECEFF5" width="800px" height="800px" viewBox="0 0 1000 1000" version="1.1" xmlns="http://www.w3.org/2000/svg" xmlns:xlink="http://www.w3.org/1999/xlink"  enable-background="new 0 0 1000 1000" xml:space="preserve">

<g>

<g transform="translate(0.000000,512.000000) scale(0.100000,-0.100000)">

<path d="M4890.9,4976.4l-53.6-45.9l-5.7-409.7l-7.7-407.8L4517.5,3885c-189.6-141.7-314-247-325.5-277.6c-26.8-74.7,15.3-344.6,93.8-580.1l67-204.9l-21.1-379.1c-36.4-618.4-118.7-1290.5-245.1-1958.7c-74.7-398.3-74.7-405.9-23-467.2c53.6-61.3,143.6-70.8,216.4-24.9c34.5,23,53.6,63.2,76.6,160.9c80.4,358,199.1,1123.9,248.9,1604.5c24.9,243.2,68.9,842.5,68.9,953.5c0,24.9,17.2,32.6,76.6,32.6h76.6V1432.3c0-1445.6-1.9-1420.7,113-1460.9c70.8-24.9,128.3-7.7,183.8,53.6c38.3,42.1,38.3,72.8,44,1443.7c3.8,965,0,1422.6-15.3,1470.5c-11.5,40.2-40.2,82.3-63.2,95.7c-23,13.4-139.8,28.7-260.4,34.5l-218.3,9.6l-36.4,105.3c-19.2,57.4-40.2,147.4-46,201l-11.5,95.7l241.3,180l241.3,178.1l241.3-178.1l239.3-180l-9.6-99.6c-5.8-53.6-38.3-170.4-70.8-258.5c-76.6-201-84.3-302.5-57.4-752.5c38.3-629.9,124.5-1303.9,250.8-1968.3C5664.4,34.6,5674,9.7,5748.7-21c76.6-32.6,143.6-19.2,189.5,42.1c49.8,61.3,47.9,72.8-19.2,423.2c-122.5,633.8-214.4,1357.5-250.8,1987.5l-23,386.8l68.9,206.8c90,268.1,124.5,515,84.3,591.6c-17.2,30.6-160.8,153.2-325.5,275.7l-296.8,220.2l-7.7,407.8l-5.7,409.7l-53.6,45.9C5040.2,5035.7,4959.8,5035.7,4890.9,4976.4z"/>

<path d="M3420.4-252.7c-32.6-30.6-47.9-67-47.9-114.9s15.3-84.2,47.9-114.9c42.1-44,61.3-47.9,220.2-47.9c93.8,0,172.3-7.7,172.3-15.3c0-9.6-34.5-132.1-74.7-273.8c-84.2-287.2-180-553.4-291-808c-42.1-91.9-74.7-193.4-74.7-222.1c0-76.6,53.6-135.9,135.9-147.4c53.6-9.6,78.5-1.9,118.7,32.5c90,80.4,338.9,718,461.4,1185.2l63.2,239.3l155.1,5.7c86.2,3.8,157-1.9,157-9.6c0-9.6-65.1-306.4-143.6-660.6c-153.2-693.1-155.1-708.4-57.4-773.5c61.3-40.2,172.3-23,210.6,36.4c13.4,23,93.8,348.5,178.1,721.8l151.3,679.7l191.5,5.7c172.3,3.8,195.3,1.9,204.9-28.7c5.7-19.2,76.6-325.5,155.1-683.5c80.4-356.2,153.2-664.4,164.7-683.6c40.2-76.6,149.3-97.7,224-44c91.9,63.2,90,84.2-63.2,769.7c-78.5,354.2-143.6,651-143.6,660.6c0,7.7,70.8,13.4,157,9.6l155.1-5.7l63.2-239.3c78.5-296.8,185.7-608.9,314-915.2c126.4-298.7,187.6-352.3,323.6-281.5c101.5,51.7,103.4,124.5,3.8,348.5c-111.1,254.6-206.8,520.8-291,808c-40.2,141.7-74.7,264.2-74.7,273.8c0,7.7,78.5,15.3,172.3,15.3c158.9,0,178.1,3.8,220.2,47.9c32.6,30.6,47.9,67,47.9,114.9s-15.3,84.3-47.9,114.9l-46,47.9H5000H3466.3L3420.4-252.7z"/>

<path d="M2836.4-2171.2c-118.7-44-155.1-191.5-67-273.8c40.2-38.3,76.6-47.9,201-57.4l153.2-9.6L3006.8-2780c-214.4-499.7-675.9-1388.2-844.4-1621.7l-36.4-53.6h-961.2c-1012.9-1.9-995.6,0-1043.5-90c-36.4-67-26.8-120.6,32.5-180l55.5-55.5H5000h4790.6l55.5,55.5c59.4,59.4,68.9,113,32.6,180c-47.9,90-28.7,88.1-1049.3,90h-966.9l-137.9,235.5c-292.9,499.7-511.2,930.6-735.2,1449.4l-113,258.5l153.2,9.6c124.5,9.6,160.8,19.2,201,57.4c67,63.2,67,168.5-1.9,231.7l-49.8,45.9l-2155.9,3.8C3835.9-2161.6,2851.7-2165.4,2836.4-2171.2z M6560.5-2592.4c137.9-369.5,505.5-1131.6,765.9-1591.1c78.5-139.8,143.6-258.5,143.6-262.3c0-5.7-189.6-9.6-421.2-9.6h-421.2v101.5c-1.9,222.1-111,562.9-250.8,775.4c-312.1,476.8-808,750.6-1363.3,750.6c-480.6,0-882.7-170.4-1200.5-511.2c-250.8-268.1-411.7-622.3-434.6-957.3l-11.5-158.9h-417.4c-231.7,0-419.3,3.8-419.3,9.6c0,3.8,65.1,122.5,143.6,262.3c256.6,451.9,549.5,1055,739.1,1524.1l63.2,157h1526H6526L6560.5-2592.4z M5417.4-3216.6c480.6-168.5,838.6-616.5,878.8-1104.8l11.5-134H5000H3692.3l11.5,135.9c44,530.4,455.7,1003.3,988,1137.3c72.8,19.1,183.8,24.9,346.5,21.1C5235.5-3166.8,5302.5-3176.4,5417.4-3216.6z"/>

</g>

</g>
</svg>