<?xml version="1.0" encoding="iso-8859-1"?>
<!-- Uploaded to: SVG Repo, www.svgrepo.com, Generator: SVG Repo Mixer Tools -->
<!DOCTYPE svg PUBLIC "-//W3C//DTD SVG 1.1//EN" "http://www.w3.org/Graphics/SVG/1.1/DTD/svg11.dtd">
<svg fill="#ECEFF5" height="800px" width="800px" version="1.1" id="Capa_1" xmlns="http://www.w3.org/2000/svg" xmlns:xlink="http://www.w3.org/1999/xlink" 
	 viewBox="0 0 465.73 465.73" xml:space="preserve">
<g>
	<path d="M393.503,155.317h-15.106v-26.952c0-3.59-2.91-6.5-6.5-6.5h-9.665V94.913c0-3.59-2.91-6.5-6.5-6.5h-28.559V38.5
		c0-3.59-2.91-6.5-6.5-6.5h-36.678v-4.63c0-2.299-1.215-4.427-3.194-5.596l-35.33-20.87C244.47,0.312,243.328,0,242.165,0h-18.6
		c-1.163,0-2.305,0.312-3.306,0.904l-35.33,20.87c-1.979,1.169-3.194,3.297-3.194,5.596V32h-36.679c-3.59,0-6.5,2.91-6.5,6.5v49.913
		h-28.558c-3.59,0-6.5,2.91-6.5,6.5v26.952h-9.666c-3.59,0-6.5,2.91-6.5,6.5v26.952H72.227c-3.59,0-6.5,2.91-6.5,6.5
		s2.91,6.5,6.5,6.5h12.567V459.23c0,3.59,2.91,6.5,6.5,6.5h82.093c3.59,0,6.5-2.91,6.5-6.5V283h2.317c3.59,0,6.5-2.91,6.5-6.5
		s-2.91-6.5-6.5-6.5h-2.317v-9.805c0-29.211,23.766-52.977,52.978-52.977c14.157,0,27.463,5.509,37.466,15.511
		c10.002,10.002,15.511,23.308,15.511,37.466V270h-2.316c-3.59,0-6.5,2.91-6.5,6.5s2.91,6.5,6.5,6.5h2.316v176.23
		c0,3.59,2.91,6.5,6.5,6.5h82.093c3.59,0,6.5-2.91,6.5-6.5V168.317h12.568c3.59,0,6.5-2.91,6.5-6.5S397.093,155.317,393.503,155.317
		z M194.735,31.079L225.342,13h15.047l30.606,18.079V32h-76.26V31.079z M151.557,45h162.616v43.413H151.557V45z M116.499,101.413
		h232.732v20.452H116.499V101.413z M100.333,134.865h265.063v20.452H100.333V134.865z M97.795,452.73V339h69.093v113.73H97.795z
		 M166.888,326H97.795v-43h69.093V326z M279.523,213.536c-12.458-12.458-29.028-19.318-46.658-19.318
		c-36.38,0-65.978,29.597-65.978,65.977V270H97.795V168.32h270.14V270h-69.093v-9.805
		C298.842,242.564,291.981,225.994,279.523,213.536z M367.934,283v43h-69.093v-43H367.934z M298.842,452.73V339h69.093v113.73
		H298.842z"/>
	<path d="M132.344,198c-11.855,0-21.5,9.645-21.5,21.5s9.645,21.5,21.5,21.5s21.5-9.645,21.5-21.5S144.199,198,132.344,198z
		 M132.344,228c-4.687,0-8.5-3.813-8.5-8.5s3.813-8.5,8.5-8.5s8.5,3.813,8.5,8.5S137.03,228,132.344,228z"/>
	<path d="M170.01,50.707c-8.822,0-15.999,7.177-15.999,15.999s7.177,15.999,15.999,15.999s15.999-7.177,15.999-15.999
		S178.832,50.707,170.01,50.707z M170.01,69.705c-1.653,0-2.999-1.345-2.999-2.999s1.346-2.999,2.999-2.999s2.999,1.345,2.999,2.999
		S171.663,69.705,170.01,69.705z"/>
	<path d="M295.721,50.707c-8.822,0-15.999,7.177-15.999,15.999s7.177,15.999,15.999,15.999s15.999-7.177,15.999-15.999
		S304.543,50.707,295.721,50.707z M295.721,69.705c-1.653,0-2.999-1.345-2.999-2.999s1.346-2.999,2.999-2.999
		s2.999,1.345,2.999,2.999S297.374,69.705,295.721,69.705z"/>
	<path d="M333.386,241c11.855,0,21.5-9.645,21.5-21.5s-9.645-21.5-21.5-21.5s-21.5,9.645-21.5,21.5S321.53,241,333.386,241z
		 M333.386,211c4.687,0,8.5,3.813,8.5,8.5s-3.813,8.5-8.5,8.5s-8.5-3.813-8.5-8.5S328.699,211,333.386,211z"/>
</g>
</svg>