<?xml version="1.0" encoding="iso-8859-1"?>
<!-- Uploaded to: SVG Repo, www.svgrepo.com, Generator: SVG Repo Mixer Tools -->
<svg fill="#ECEFF5" height="800px" width="800px" version="1.1" id="Capa_1" xmlns="http://www.w3.org/2000/svg" xmlns:xlink="http://www.w3.org/1999/xlink" 
	 viewBox="0 0 19.936 19.936" xml:space="preserve">
<g>
	<path d="M13.981,19.372c-0.564-0.689-2.004-2.533-2.433-4.002c-0.54-1.841-0.563-3.275-0.563-3.275h0.245v-0.791h-0.318
		c0,0-0.318-2.955-0.393-3.96c-0.075-1.006-0.146-1.715-0.146-1.715l0.121-0.191V4.883l-0.071-0.217V4.11l0.118-0.151V3.362
		l-0.303-0.267L10.033,0H9.903L9.698,3.095L9.392,3.362v0.597L9.514,4.11v0.556L9.443,4.883v0.555l0.123,0.191
		c0,0-0.073,0.709-0.148,1.715c-0.072,1.006-0.391,3.96-0.391,3.96h-0.32v0.791H8.95c0,0-0.021,1.436-0.561,3.275
		c-0.434,1.469-1.867,3.312-2.435,4.002H4.664v0.564h10.607v-0.564C15.272,19.372,13.981,19.372,13.981,19.372z M10.288,13.177
		h0.276c0.011,0.078,0.024,0.189,0.046,0.322h-0.322V13.177z M10.288,13.792h0.362c0.029,0.188,0.06,0.396,0.095,0.607h-0.457
		V13.792z M10.288,14.695h0.505c0.034,0.211,0.072,0.42,0.107,0.604h-0.612V14.695z M10.288,15.593h0.675
		c0.003,0.008,0.006,0.018,0.006,0.023c0.048,0.201,0.101,0.4,0.152,0.586h-0.833V15.593z M10.288,16.495h0.923
		c0.12,0.373,0.217,0.631,0.217,0.631s-0.367-0.178-0.627-0.225c-0.255-0.049-0.513-0.066-0.513-0.066V16.495z M9.373,13.177h0.274
		v0.322h-0.32C9.344,13.364,9.363,13.255,9.373,13.177z M9.285,13.792h0.362v0.607H9.189C9.224,14.189,9.257,13.98,9.285,13.792z
		 M9.142,14.695h0.506v0.604H9.033C9.071,15.114,9.108,14.905,9.142,14.695z M8.969,15.616C8.97,15.61,8.97,15.6,8.972,15.593h0.676
		v0.609H8.812C8.868,16.017,8.92,15.818,8.969,15.616z M8.724,16.495h0.925v0.34c0,0-0.26,0.018-0.519,0.066
		c-0.254,0.047-0.62,0.225-0.62,0.225S8.604,16.868,8.724,16.495z M9.7,17.322v2.051H6.702C7.174,18.751,8.306,17.48,9.7,17.322z
		 M10.233,19.372v-2.051c1.394,0.158,2.526,1.43,3.002,2.051H10.233z"/>
</g>
</svg>